<svg width="222" height="223" viewBox="0 0 222 223" fill="none" xmlns="http://www.w3.org/2000/svg">
<path d="M193.453 196.216C193.453 187.925 221.089 171.344 221.089 153.38C221.089 132.653 201.743 116.072 178.253 109.163C187.925 98.1081 193.453 85.6719 193.453 70.472C193.453 31.7815 153.38 0 102.254 0C53.8904 0 0 29.0179 0 70.472C0 99.4899 22.1089 120.217 31.7815 128.508C30.3997 145.089 23.4907 151.998 23.4907 151.998L6.90902 165.817H27.6361C49.745 165.817 67.7084 158.907 78.7628 150.617V153.38C78.7628 181.016 109.163 203.125 147.853 203.125H156.144C161.671 210.034 179.635 222.47 203.125 222.47C204.507 221.089 193.453 215.561 193.453 196.216V196.216ZM102.254 13.818C145.089 13.818 179.635 40.0723 179.635 70.472C179.635 100.872 143.708 127.126 99.4899 127.126C96.7263 127.126 91.1991 127.126 88.4355 127.126H84.2901L82.9083 129.89C78.7628 135.417 62.1812 146.471 40.0723 150.617C41.4541 145.089 41.4541 136.799 41.4541 125.744V121.599C27.6361 110.544 12.4362 91.1991 12.4362 71.8538C12.4362 41.4541 56.654 13.818 102.254 13.818V13.818Z" fill="#EF8F29"/>
</svg>
