<svg width="221" height="221" viewBox="0 0 221 221" fill="none" xmlns="http://www.w3.org/2000/svg">
<path d="M217.683 202.062C218.71 203.087 219.524 204.305 220.08 205.645C220.636 206.986 220.923 208.422 220.923 209.874C220.924 211.325 220.638 212.762 220.083 214.103C219.528 215.443 218.714 216.662 217.688 217.688C216.662 218.714 215.443 219.528 214.103 220.083C212.762 220.638 211.325 220.924 209.874 220.923C208.422 220.923 206.986 220.636 205.645 220.08C204.305 219.524 203.087 218.71 202.062 217.683L110.457 126.078L18.8517 217.683C16.7798 219.752 13.9709 220.914 11.0425 220.913C8.11412 220.912 5.30595 219.749 3.23528 217.678C1.16461 215.607 0.000918791 212.799 5.43835e-07 209.871C-0.000917703 206.942 1.16102 204.134 3.23039 202.062L94.8353 110.457L3.23039 18.8517C1.16102 16.7798 -0.000917703 13.9709 5.43835e-07 11.0425C0.000918791 8.11412 1.16461 5.30595 3.23528 3.23528C5.30595 1.16461 8.11412 0.000918791 11.0425 5.43835e-07C13.9709 -0.000917703 16.7798 1.16102 18.8517 3.23039L110.457 94.8353L202.062 3.23039C204.134 1.16102 206.942 -0.000917703 209.871 5.43835e-07C212.799 0.000918791 215.607 1.16461 217.678 3.23528C219.749 5.30595 220.912 8.11412 220.913 11.0425C220.914 13.9709 219.752 16.7798 217.683 18.8517L126.078 110.457L217.683 202.062Z" fill="white"/>
</svg>
