<svg width="222" height="222" viewBox="0 0 222 222" fill="none" xmlns="http://www.w3.org/2000/svg">
<path d="M123.966 221.092L106.115 179.15C123.309 172.798 139.407 164.256 154.3 154.291L123.966 221.092ZM41.9424 114.977L0 97.1266L66.8012 66.7922C56.8358 81.6856 48.294 97.7836 41.9424 114.977ZM216.83 4.2619C216.83 4.2619 162.623 -18.9652 100.64 43.0285C76.6572 67.0113 62.3113 93.4032 53.0029 116.51C49.9367 124.723 52.0174 133.703 58.0404 139.836L81.3661 163.052C87.3891 169.184 96.369 171.155 104.582 168.089C128.017 159.109 154.081 144.435 178.064 120.452C240.046 58.4695 216.83 4.2619 216.83 4.2619V4.2619ZM139.406 81.6856C130.865 73.1438 130.865 59.236 139.406 50.6942C147.948 42.1524 161.856 42.1524 170.398 50.6942C178.83 59.236 178.94 73.1438 170.398 81.6856C161.856 90.2274 147.948 90.2274 139.406 81.6856V81.6856ZM77.4237 159.109L61.9828 143.668L77.4237 159.109ZM48.513 219.011L88.3747 179.15C84.6514 178.164 81.0376 176.521 77.7522 174.222L33.0721 219.011H48.513ZM2.08069 219.011H17.5216L69.758 166.885L54.2076 151.444L2.08069 203.571V219.011ZM2.08069 188.02L46.8704 143.34C44.5707 140.055 42.928 136.55 41.9424 132.717L2.08069 172.579V188.02Z" fill="#EF3F29"/>
</svg>
