<svg width="222" height="236" viewBox="0 0 222 236" fill="none" xmlns="http://www.w3.org/2000/svg">
<path d="M207.501 38.5408L119.065 1.69274C116.372 0.575224 113.484 0 110.567 0C107.651 0 104.763 0.575224 102.069 1.69274L13.6338 38.5408C5.38904 41.9493 0 50.0098 0 58.9455C0 150.375 52.7389 213.569 102.023 234.112C107.458 236.369 113.584 236.369 119.019 234.112C158.493 217.669 221.089 160.877 221.089 58.9455C221.089 50.0098 215.7 41.9493 207.501 38.5408ZM110.59 205.555L110.544 30.0658L191.564 63.8279C190.044 133.563 153.749 184.091 110.59 205.555V205.555Z" fill="#3ACC74"/>
</svg>
